# xmcd
#
# Track frame offsets:
#	150
#	17302
#	34177
#	50321
#	66449
#	84889
#
# Disc length: 1375 seconds
#
# Revision: 1
# Processed by: cddbd v1.5.1PL0 Copyright (c) Steve Scherf et al.
# Submitted via: audiograbber 1.83.01
#
DISCID=3d055d06
DTITLE=Da Germ - Boomboombangslap...Phat!
DYEAR=1900
DGENRE=Hip-Hop
TTITLE0=Boomboombangslap...Phat! (Paragon of Madness)
TTITLE1=Boomboombangslap...Phat! (The Floor Mix)
TTITLE2=Boomboombangslap...Phat! (R.MII.´s Down Low Mix)
TTITLE3=Boomboombangslap...Phat! (R.MII.´s Down Low Instr.)
TTITLE4=Letz Give it Up... (Dome of Power Mix)
TTITLE5=Letz Give it Up... (Dome of Power Instr.) 
EXTD=
EXTT0=
EXTT1=
EXTT2=
EXTT3=
EXTT4=
EXTT5=
PLAYORDER=
